<?xml version="1.0" encoding="UTF-8"?>
<svg version="1.1" xmlns="http://www.w3.org/2000/svg" width="32" height="32">
<path d="M0 0 C10.56 0 21.12 0 32 0 C32 10.56 32 21.12 32 32 C21.44 32 10.88 32 0 32 C0 21.44 0 10.88 0 0 Z " fill="#6533EC" transform="translate(0,0)"/>
<path d="M0 0 C2.00720923 0.28674418 4.0085944 0.61866701 6 1 C6.33 1.99 6.66 2.98 7 4 C5.35 3.67 3.7 3.34 2 3 C2.99 4.485 2.99 4.485 4 6 C6.58340351 4.85182066 8.3067044 3.72475246 10.4375 1.8125 C13 0 13 0 15.8125 0.25 C16.8953125 0.62125 16.8953125 0.62125 18 1 C17.49396008 3.16874252 17.00016187 4.99967627 16 7 C15.34 7 14.68 7 14 7 C14 5.68 14 4.36 14 3 C13.01 3.495 13.01 3.495 12 4 C12.42924153 6.89738032 13.129344 8.16168 15 10.5 C16.870656 12.83832 17.57075847 14.10261968 18 17 C15.6875 17.625 15.6875 17.625 13 18 C12.01 17.34 11.02 16.68 10 16 C10 15.34 10 14.68 10 14 C11.65 14.33 13.3 14.66 15 15 C14.01 14.01 13.02 13.02 12 12 C11.09507813 12.66708984 11.09507813 12.66708984 10.171875 13.34765625 C8.97304688 14.19650391 8.97304688 14.19650391 7.75 15.0625 C6.96109375 15.63097656 6.1721875 16.19945313 5.359375 16.78515625 C3 18 3 18 0.703125 17.68359375 C0.14109375 17.45800781 -0.4209375 17.23242188 -1 17 C-0.34 15.02 0.32 13.04 1 11 C1.99 11 2.98 11 4 11 C3.67 12.32 3.34 13.64 3 15 C3.99 14.01 4.98 13.02 6 12 C5.57847656 11.54109375 5.15695313 11.0821875 4.72265625 10.609375 C4.17480469 9.99578125 3.62695312 9.3821875 3.0625 8.75 C2.51722656 8.14671875 1.97195312 7.5434375 1.41015625 6.921875 C-0.07209564 4.90174223 -0.66729421 3.4715287 -1 1 C-0.67 0.67 -0.34 0.34 0 0 Z " fill="#D5C7F9" transform="translate(7,7)"/>
<path d="M0 0 C2.97 0.495 2.97 0.495 6 1 C6.33 1.99 6.66 2.98 7 4 C5.35 3.67 3.7 3.34 2 3 C2.99 4.485 2.99 4.485 4 6 C6.58340351 4.85182066 8.3067044 3.72475246 10.4375 1.8125 C13 0 13 0 15.8125 0.25 C16.8953125 0.62125 16.8953125 0.62125 18 1 C17.49396008 3.16874252 17.00016187 4.99967627 16 7 C15.34 7 14.68 7 14 7 C14 5.68 14 4.36 14 3 C12.576875 4.2375 12.576875 4.2375 11.125 5.5 C8.25 8 8.25 8 6 8 C6 8.66 6 9.32 6 10 C2.19118361 8.55527654 0.70257114 6.67396929 -1 3 C-0.67 2.01 -0.34 1.02 0 0 Z " fill="#E8E0FC" transform="translate(7,7)"/>
<path d="M0 0 C4.41889613 1.35021826 6.34345343 3.26115668 9 7 C6.525 8.485 6.525 8.485 4 10 C4.33 8.35 4.66 6.7 5 5 C3.68 5 2.36 5 1 5 C0.67 3.35 0.34 1.7 0 0 Z " fill="#784DEE" transform="translate(5,13)"/>
<path d="M0 0 C0.66 0.66 1.32 1.32 2 2 C1.67 2.99 1.34 3.98 1 5 C2.65 4.34 4.3 3.68 6 3 C5 6 5 6 3.1875 7.25 C0.66056586 8.11637742 -0.52221994 7.88492145 -3 7 C-1.125 1.125 -1.125 1.125 0 0 Z " fill="#EBE4FC" transform="translate(9,17)"/>
<path d="M0 0 C1.1446875 0.2475 1.1446875 0.2475 2.3125 0.5 C5.03596236 1.09145396 5.03596236 1.09145396 8 1 C7.67 1.99 7.34 2.98 7 4 C2.25 3.125 2.25 3.125 0 2 C0 1.34 0 0.68 0 0 Z " fill="#EDE7FC" transform="translate(17,21)"/>
<path d="M0 0 C0.66 0.33 1.32 0.66 2 1 C1.01 2.485 1.01 2.485 0 4 C-0.66 4 -1.32 4 -2 4 C-2 4.66 -2 5.32 -2 6 C-2.99 5.67 -3.98 5.34 -5 5 C-4 2 -4 2 -2.0625 0.75 C-1.381875 0.5025 -0.70125 0.255 0 0 Z " fill="#F5F2FD" transform="translate(15,11)"/>
<path d="M0 0 C1.04449911 3.13349732 0.93423645 3.98968256 0 7 C-0.99 6.34 -1.98 5.68 -3 5 C-2.625 3.0625 -2.625 3.0625 -2 1 C-1.34 0.67 -0.68 0.34 0 0 Z " fill="#845CF0" transform="translate(21,9)"/>
</svg>
